PathFileType	4	(X/Y/Z)	Patient4_TMGait_0pt4_01_left_28.trc.trc
DataRate	CameraRate	NumFrames	NumMarkers	Units	OrigDataRate	OrigDataStartFrame	OrigNumFrames
72.916666666667	72.916666666667	5	33	mm	72.916666666667	18	       141
Frame#	Time	Sacral			L.Shoulder			Chest			R.Shoulder			Neck			R.ASIS			L.ASIS			R.Thigh.Superior			R.Thigh.Lateral			R.Thigh.Inferior			R.Patella			L.Thigh.Superior			L.Thigh.Lateral			L.Thigh.Inferior			L.Patella			L.Shank.Superior			L.Shank.Lateral			L.Shank.Inferior			R.Shank.Superior			R.Shank.Lateral			R.Shank.Inferior			R.Heel			R.Midfoot.Superior			R.Midfoot.Lateral			R.Toe			L.Heel			L.Midfoot.Lateral			L.Midfoot.Superior			L.Toe			L.Elbow			L.Wrist			R.Elbow			R.Wrist			
		X1	Y1	Z1	X2	Y2	Z2	X3	Y3	Z3	X4	Y4	Z4	X5	Y5	Z5	X6	Y6	Z6	X7	Y7	Z7	X8	Y8	Z8	X9	Y9	Z9	X10	Y10	Z10	X11	Y11	Z11	X12	Y12	Z12	X13	Y13	Z13	X14	Y14	Z14	X15	Y15	Z15	X16	Y16	Z16	X17	Y17	Z17	X18	Y18	Z18	X19	Y19	Z19	X20	Y20	Z20	X21	Y21	Z21	X22	Y22	Z22	X23	Y23	Z23	X24	Y24	Z24	X25	Y25	Z25	X26	Y26	Z26	X27	Y27	Z27	X28	Y28	Z28	X29	Y29	Z29	X30	Y30	Z30	X31	Y31	Z31	X32	Y32	Z32	X33	Y33	Z33	

18	34.313142857143	896.829780070070	1013.615277481893	530.607606680775	1076.035751913607	1438.274803427218	340.683047874333	1193.661265013966	1362.650886180927	487.499752479729	1134.658794852692	1438.262732705556	670.114752871541	1083.430531465152	1497.166576728681	497.952649776615	1130.740350218507	939.783231595080	627.239072038264	1097.840335352951	967.148116377973	355.269999909403	1140.539357349957	731.976823790036	597.017288674492	1048.185731371025	632.710171364468	663.903191194766	1111.047728227897	572.638915242046	580.212764098827	1099.550501219967	488.365900456305	586.646579521778	1164.555773290499	776.376934107980	381.838893914979	1116.333861240296	652.806192679400	297.882784902346	1213.722492732188	587.219521138554	362.634910320729	1239.764421230777	525.578505402751	357.254259575629	1224.423581291281	455.817384104979	343.980149951493	1163.086293043940	325.949962736999	286.730148997436	1251.392205897884	227.078396106065	341.959306370753	1066.499633737697	400.952810851130	594.186996745862	990.352821610941	302.420546544042	659.519970214592	1022.276324208296	205.090862029721	592.986305965438	877.147928056182	44.782918455559	565.663078607780	1049.945880051565	96.549166397627	598.451616232652	961.767842947315	37.326473096843	638.815431561255	1170.072469398400	41.010180040139	623.015792325391	1170.318512226585	46.658781233976	374.573481374668	1248.964691696442	49.519446305615	299.229075863272	1317.585364602671	129.086487530068	322.041653930409	1452.851243163187	100.976917261234	304.914738078403	954.836385753139	1104.294435098892	240.969725037206	937.352616182762	845.217870039904	221.975769909890	1241.225925513971	1122.401608893316	807.222925597467	1480.176331354330	1055.556265737141	741.378722160502	
19	34.326857142857	897.594772087178	1012.811074265167	529.111855726854	1075.662158897317	1437.722741530333	338.926483485333	1193.539508960080	1362.292976074980	485.623359124815	1134.475420063606	1437.745750660494	668.264875983539	1082.938395248997	1496.520503568502	496.190427882543	1131.415619669056	939.317065471567	625.792599742173	1098.522154261944	966.146859717368	353.684394380084	1139.721410107401	731.043286120652	595.801763953995	1046.566069113106	632.305601045610	662.882822499296	1108.808843348600	571.684179567625	579.321763373603	1096.531532809032	487.451561092362	585.692874481210	1165.352695722396	775.412081031776	380.522405930019	1115.804399338942	650.764210959013	298.442716592555	1213.993025902494	585.891036679482	362.111579199309	1239.479722638488	523.725411208737	357.578797938661	1223.634516997705	453.512048225352	345.146389232451	1160.835542078430	324.015798743260	289.220416624434	1248.262431706274	224.779425888151	344.709372936107	1062.987152098890	400.282032747853	593.475039000218	986.310921709858	302.327317470384	659.158976101498	1017.408752135903	204.718407236814	592.696591280655	871.574156134304	44.696532624365	565.697427616819	1044.352322808545	96.499147434360	598.416869356012	956.180143163667	37.263084608269	638.865892752334	1164.478114337256	41.037370120430	623.046825344552	1165.520370824433	45.923329690295	378.730530158189	1243.498439064812	47.908123304377	302.747120104312	1313.280485050909	126.224510025788	325.132126918603	1447.831847363536	96.344927685110	306.864424305173	953.192019802332	1104.446678863100	239.250816363106	935.504558036187	845.357514229418	220.005864690506	1243.258812379969	1122.148827405702	803.953444360614	1482.449624568583	1058.662526819291	736.339914067652	
20	34.340571428571	898.519716716678	1011.841793265050	527.335168923348	1075.262789143584	1437.045862603298	336.921159768754	1193.375098463591	1361.925473332510	483.566217467972	1134.102542754377	1437.177895766702	666.209556082378	1082.342356786925	1495.778604379101	494.185981172410	1132.220725591875	938.813079799805	624.266701260619	1099.512713410361	964.997029391958	352.015222025257	1139.078668732281	730.069327440987	594.576369161013	1045.070790908534	631.860679777126	661.787973404631	1106.763704720420	570.658195667692	578.427575188370	1093.683823087798	486.462634228117	584.710344051126	1166.661141366646	774.325419877909	379.084266813303	1115.549247861335	648.518720747803	299.161273420133	1214.620316964114	584.417344456845	361.669790526914	1239.342019888733	521.413514517985	358.059963799609	1222.663306071066	450.647504812070	346.491913729752	1157.632568835198	321.912040060187	291.890009248507	1243.530460091198	221.789241492873	347.643132094775	1059.615332798593	399.558419127105	592.726285716757	982.367932420019	302.225666126104	658.777675806432	1012.567363499042	204.326934553335	592.401503382002	866.006176390337	44.611043806610	565.745478696573	1038.751459024721	96.448477707807	598.387052487295	950.597432453841	37.191344687183	638.917717456102	1158.883364517934	41.053332265500	623.079576176624	1158.029483005802	45.043976621334	382.897698255787	1235.288681961923	46.032254851943	306.207070062647	1306.699952135748	122.522184872401	328.434025900940	1440.360171353002	90.142046192508	308.770675313527	951.983073148981	1104.314744017986	237.166164927009	934.963440523472	845.131527052965	217.619315805664	1244.552151340957	1121.680633511876	800.702793380442	1483.805783349746	1060.954422759301	731.356293362412	
21	34.354285714286	899.580641719612	1010.729340214030	525.280519713808	1074.868282931123	1436.243395396753	334.661026000220	1193.191161929006	1361.552113213629	481.330901623721	1133.561385856681	1436.571311483183	663.950453166369	1081.674878782079	1494.953986965642	491.930250718942	1133.154505276297	938.275285582789	622.667593769942	1100.796797097751	963.720603609586	350.283024653075	1138.650187440332	729.063680073347	593.359846461223	1043.720502573475	631.387296986922	660.615585348865	1104.928978964706	569.572722689725	577.526070035887	1091.026080172339	485.410785808282	583.691293380656	1168.371920619060	773.047780026411	377.588097916770	1115.524004036464	646.136725104084	299.945520048518	1215.446730824056	582.777718016227	361.372130180568	1239.212309345457	518.719427258044	358.734186678430	1221.512051461046	447.366045738506	347.951922424998	1153.788944808854	319.662358215688	294.569462891515	1237.675216251332	218.292353304501	350.627353339992	1056.396118083150	398.794808768933	591.934226785181	978.533213097284	302.133924725118	658.368264197347	1007.768656663391	203.931072702258	592.097944233207	860.449791655966	44.548749026598	565.813148954116	1033.154537343558	96.404614171770	598.365036114629	945.026948935112	37.120900790602	638.970304170970	1153.294801292008	41.049235253630	623.115000340252	1148.647286545234	44.025780000158	386.817143700181	1225.236972703857	44.019089804511	309.447996484783	1298.556803664503	118.262362632413	331.853370501802	1431.247583482591	82.905583101473	310.728962169777	951.230208149210	1103.888433139837	234.728449049223	935.677163513531	844.540036011186	214.833921305795	1245.109977183274	1120.989431705532	797.492473880988	1484.273926844593	1062.370174990335	726.486193014049	
22	34.368000000000	900.741769397824	1009.518488885501	522.965250136498	1074.514571486447	1435.332927210143	332.144352120519	1193.013614490067	1361.187369966925	478.922407004873	1132.885548664706	1435.956684030693	661.490615187286	1080.976497325036	1494.078158943190	489.416437264372	1134.206524097740	937.719711444871	620.995384798496	1102.331021439578	962.366045341505	348.500639250551	1138.465085330178	728.045817227255	592.159677719718	1042.530560379206	630.907754326632	659.355723358284	1103.319078378902	568.452552042143	576.606132574622	1088.580051464767	484.313925905245	582.623333114948	1170.361431329918	771.565053297390	376.094715438227	1115.698290505615	643.724306487170	300.692539337444	1216.346040720208	581.008073224726	361.250096592859	1238.998518462502	515.779729902389	359.594690239839	1220.222327411884	443.861966419122	349.437207016410	1149.652348024037	317.345565660208	297.083156533485	1231.207548320944	214.535123732176	353.517513136350	1053.341623725031	398.012820954471	591.090478162023	974.813709624947	302.081612888040	657.919994119883	1003.031675518800	203.553864951398	591.782973381209	854.910526574360	44.544464313550	565.905556102446	1027.576396156121	96.377357812976	598.353721089072	939.476200240004	37.066866244740	639.023006177788	1147.719909508650	41.015947569351	623.154106907803	1138.219213421932	42.923597710399	390.277437863482	1214.260387025375	42.033124751808	312.328859862041	1289.573065681840	113.795127457548	335.260569685856	1421.307726504800	75.264363415876	312.759371409953	950.967143910292	1103.176005445312	231.954314794297	937.588130291199	843.608140417612	211.676123743059	1244.938254718921	1120.082345160565	794.329684396194	1483.881443176541	1062.848672180471	721.788002235606	
